<svg width="11" height="7" viewBox="0 0 11 7" fill="none" xmlns="http://www.w3.org/2000/svg">
<path d="M5.48427 3.31263C5.91251 3.75854 6.27083 4.1345 6.63789 4.50172C7.29335 5.15746 7.94881 5.81321 8.60427 6.46896C9.18108 7.03728 10.0463 7.03728 10.5969 6.46896C11.1387 5.91813 11.1387 5.07003 10.5707 4.50172C9.23352 3.15525 7.89638 1.81752 6.55049 0.479789C5.91251 -0.158473 5.09973 -0.158471 4.47049 0.471048C3.12461 1.80878 1.77872 3.1465 0.441576 4.49297C-0.135232 5.07003 -0.143971 5.92688 0.397878 6.48645C0.948467 7.04602 1.83116 7.04602 2.4167 6.45148C3.42175 5.42851 4.41805 4.3968 5.48427 3.31263Z" fill="white"/>
</svg>
