<svg width="9" height="15" viewBox="0 0 9 15" fill="none" xmlns="http://www.w3.org/2000/svg">
<path d="M4.68034 7.52148C4.09888 6.93753 3.60863 6.44891 3.12977 5.94838C2.27468 5.05457 1.41959 4.16076 0.564493 3.26695C-0.176588 2.4804 -0.176588 1.30057 0.564493 0.549773C1.28277 -0.189109 2.38869 -0.18911 3.12977 0.585525C4.88557 2.40889 6.62996 4.23227 8.37435 6.06755C9.20664 6.93753 9.20664 8.04585 8.38575 8.90391C6.64136 10.7392 4.89697 12.5745 3.14117 14.3979C2.38869 15.1844 1.27137 15.1963 0.541689 14.4574C-0.187991 13.7066 -0.187991 12.503 0.587294 11.7045C1.92124 10.334 3.26659 8.97541 4.68034 7.52148Z" fill="#C52832"/>
</svg>
