<svg width="6" height="10" viewBox="0 0 6 10" fill="none" xmlns="http://www.w3.org/2000/svg">
<path d="M3.12023 5.24216C2.73259 5.60922 2.40575 5.91635 2.08652 6.23097C1.51645 6.7928 0.946391 7.35462 0.376329 7.91644C-0.117726 8.41084 -0.117726 9.15245 0.376328 9.62438C0.855181 10.0888 1.59246 10.0888 2.08652 9.60191C3.25704 8.45579 4.41997 7.30967 5.5829 6.15606C6.13776 5.60922 6.13776 4.91256 5.5905 4.37321C4.42757 3.2196 3.26464 2.06599 2.09412 0.919874C1.59246 0.425469 0.84758 0.417978 0.361126 0.882419C-0.125327 1.35435 -0.125328 2.11094 0.391529 2.61283C1.28083 3.47429 2.17772 4.32827 3.12023 5.24216Z" fill="#1A1A1A"/>
</svg>
