<svg width="8" height="6" viewBox="0 0 8 6" fill="none" xmlns="http://www.w3.org/2000/svg">
<path d="M4.01146 3.5515C3.70002 3.2272 3.43943 2.95378 3.17248 2.68671C2.69578 2.2098 2.21908 1.7329 1.74238 1.25599C1.32289 0.842675 0.69365 0.842676 0.293224 1.25599C-0.100845 1.65659 -0.100846 2.27339 0.312291 2.68671C1.28475 3.66596 2.25722 4.63884 3.23604 5.61173C3.70002 6.07592 4.29113 6.07592 4.74876 5.61809C5.72757 4.6452 6.70639 3.67231 7.67886 2.69307C8.09835 2.27339 8.10471 1.65023 7.71064 1.24327C7.31021 0.836315 6.66826 0.836315 6.24241 1.26871C5.51147 2.01268 4.78689 2.76301 4.01146 3.5515Z" fill="white"/>
</svg>
