<svg width="27" height="27" viewBox="0 0 27 27" fill="none" xmlns="http://www.w3.org/2000/svg">
<path d="M13.5 27C6.08549 27 0 20.9145 0 13.5C0 6.08549 6.08549 0 13.5 0C20.9145 0 27 6.08549 27 13.5C27 20.9145 20.9145 27 13.5 27ZM13.5 2.09845C7.20466 2.09845 2.09845 7.20466 2.09845 13.5C2.09845 19.7953 7.20466 24.9016 13.5 24.9016C19.7953 24.9016 24.9016 19.7953 24.9016 13.5C24.9016 7.20466 19.7953 2.09845 13.5 2.09845Z" fill="#21335E"/>
<path d="M22.1036 12.4508H4.96631V14.5493H22.1036V12.4508Z" fill="#21335E"/>
</svg>
