<svg width="23" height="23" viewBox="0 0 23 23" fill="none" xmlns="http://www.w3.org/2000/svg">
<path d="M20.5566 22.9469H2.44342C1.11547 22.9469 0 21.8845 0 20.5566V2.3903C0 1.06236 1.06236 0 2.44342 0H20.5566C21.8845 0 23 1.06236 23 2.3903V20.5035C22.9469 21.8845 21.8845 22.9469 20.5566 22.9469ZM2.44342 1.64665C2.01848 1.64665 1.64665 2.01848 1.64665 2.44342V20.5566C1.64665 20.9815 2.01848 21.3533 2.44342 21.3533H20.5566C20.9815 21.3533 21.3533 20.9815 21.3533 20.5566V2.3903C21.3533 1.96536 20.9815 1.59353 20.5566 1.59353H2.44342V1.64665Z" fill="white"/>
<path d="M15.0849 11.9512H7.86084C7.43589 11.9512 7.11719 11.6325 7.11719 11.2075C7.11719 10.7826 7.43589 10.4639 7.86084 10.4639H15.0849C15.5098 10.4639 15.8285 10.7826 15.8285 11.2075C15.8816 11.6325 15.5098 11.9512 15.0849 11.9512Z" fill="white"/>
<path d="M11.7389 15.5099C11.5265 15.5099 11.314 15.4568 11.2077 15.2974C10.889 14.9787 10.889 14.5007 11.2077 14.182L14.2355 11.1543L10.9422 7.91407C10.6234 7.59537 10.6234 7.11731 10.9422 6.7986C11.2609 6.47989 11.7389 6.47989 12.0576 6.7986L15.8821 10.6231C16.0415 10.7824 16.0946 10.9418 16.0946 11.1543C16.0946 11.3667 15.9883 11.5792 15.8821 11.6854L12.3232 15.2443C12.1639 15.4568 11.9514 15.5099 11.7389 15.5099Z" fill="white"/>
</svg>
