<svg width="22" height="19" viewBox="0 0 22 19" fill="none" xmlns="http://www.w3.org/2000/svg">
<path d="M21.3354 14.5683C21.2397 14.9456 21.1778 15.3342 21.0484 15.6946C20.4742 17.3052 18.915 18.4483 17.2038 18.5328C16.9505 18.5441 16.6916 18.5497 16.4383 18.5497C12.7007 18.5497 8.95747 18.5497 5.21987 18.5497C4.49937 18.5497 3.80139 18.4371 3.15407 18.1048C1.64552 17.3277 0.773038 16.0888 0.694233 14.3937C0.621057 12.8789 0.666089 11.3528 0.677347 9.83233C0.682976 9.2692 1.13892 8.83558 1.69055 8.82995C2.23093 8.82432 2.67561 9.23541 2.72627 9.78728C2.7319 9.86612 2.7319 9.95059 2.7319 10.0294C2.7319 11.4035 2.72627 12.7775 2.7319 14.146C2.73753 15.2722 3.48617 16.1901 4.58381 16.4323C4.76393 16.4717 4.95532 16.4886 5.1467 16.4886C9.05316 16.4942 12.9596 16.4942 16.8717 16.4886C18.1326 16.4886 19.0726 15.6833 19.2696 14.4557C19.2921 14.3149 19.2865 14.1741 19.2865 14.0333C19.2865 12.6649 19.2865 11.3021 19.2865 9.9337C19.2865 9.41561 19.5454 9.03268 19.9845 8.88627C20.5192 8.70606 21.0821 8.97637 21.2791 9.50572C21.3017 9.56203 21.3242 9.61834 21.3467 9.67466C21.3354 11.3078 21.3354 12.9352 21.3354 14.5683Z" fill="white"/>
<path d="M13.6965 7.34893C14.0174 7.34893 14.3213 7.3433 14.6197 7.34893C15.0587 7.35456 15.4978 7.33767 15.9312 7.38272C16.5279 7.44466 16.8318 8.17111 16.4941 8.66667C16.4322 8.7624 16.3534 8.84687 16.2746 8.92571C14.7548 10.4518 13.2293 11.9723 11.7095 13.4984C11.2311 13.977 10.7695 13.977 10.291 13.4984C8.75998 11.9666 7.22892 10.4349 5.69786 8.89755C5.32072 8.52025 5.2588 8.0979 5.52336 7.71497C5.72037 7.4334 6.00745 7.3433 6.32829 7.3433C6.97562 7.3433 7.61731 7.3433 8.29841 7.3433C8.29841 7.25883 8.29841 7.17999 8.29841 7.10115C8.29841 5.14707 8.29841 3.19861 8.29841 1.24453C8.29841 0.625081 8.608 0.185835 9.14275 0.0450509C9.28347 0.00563136 9.43545 0 9.5818 0C10.5275 0 11.4731 0 12.4131 0C13.235 0 13.6965 0.467403 13.6965 1.29521C13.6965 3.22677 13.6965 5.15833 13.6965 7.08989C13.6965 7.16873 13.6965 7.24756 13.6965 7.34893Z" fill="white"/>
</svg>
