<svg xmlns="http://www.w3.org/2000/svg" width="29" height="29" viewBox="0 0 29 29" fill="none">
<path d="M4.41172 22.5997C5.01172 20.8997 6.01172 19.7997 7.71172 19.4997C9.81172 19.0997 11.8117 20.1997 12.6117 22.0997C12.8117 22.4997 13.0117 22.5997 13.4117 22.5997C17.7117 22.5997 22.1117 22.5997 26.4117 22.5997C26.5117 22.5997 26.7117 22.5997 26.8117 22.5997C27.6117 22.5997 28.1117 23.0997 28.1117 23.7997C28.1117 24.4997 27.6117 24.9997 26.8117 24.9997C26.2117 24.9997 25.6117 24.9997 25.0117 24.9997C21.1117 24.9997 17.3117 24.9997 13.4117 24.9997C13.0117 24.9997 12.8117 25.0997 12.6117 25.4997C11.9117 27.1997 10.3117 28.1997 8.61172 28.1997C6.81172 28.1997 5.21172 27.0997 4.51172 25.4997C4.41172 25.0997 4.21172 24.9997 3.91172 24.9997C3.11172 24.9997 2.21172 24.9997 1.41172 24.9997C0.511719 24.9997 0.0117188 24.4997 0.0117188 23.7997C0.0117188 23.0997 0.511719 22.5997 1.41172 22.5997C2.41172 22.5997 3.41172 22.5997 4.41172 22.5997Z" fill="#C52832"/>
<path d="M23.8133 15.2997C23.3133 16.7997 22.4133 17.7997 21.0133 18.2997C18.8133 19.0997 16.4133 17.9997 15.6133 15.7997C15.4133 15.3997 15.2133 15.2997 14.8133 15.2997C10.5133 15.2997 6.11328 15.2997 1.81328 15.2997C1.71328 15.2997 1.51328 15.2997 1.41328 15.2997C0.613281 15.2997 0.113281 14.7997 0.113281 14.0997C0.113281 13.3997 0.613281 12.8997 1.41328 12.8997C5.81328 12.8997 10.3133 12.8997 14.7133 12.8997C15.2133 12.8997 15.4133 12.7997 15.6133 12.2997C16.2133 10.6997 17.9133 9.59966 19.7133 9.69966C21.4133 9.69966 23.0133 10.7997 23.7133 12.3997C23.8133 12.7997 24.0133 12.8997 24.4133 12.8997C25.2133 12.8997 26.1133 12.8997 26.9133 12.8997C27.7133 12.8997 28.3133 13.3997 28.3133 14.0997C28.3133 14.7997 27.8133 15.2997 26.9133 15.2997C25.8133 15.2997 24.8133 15.2997 23.8133 15.2997Z" fill="#C52832"/>
<path d="M4.41262 5.6C3.41262 5.6 2.41262 5.6 1.31262 5.6C0.612618 5.6 0.112618 5.2 0.0126182 4.6C-0.0873818 3.9 0.412618 3.3 1.31262 3.3C2.21262 3.3 3.11262 3.3 4.01262 3.3C4.31262 3.3 4.41262 3.2 4.61262 2.9C5.21262 1.1 6.81262 0 8.61262 0C10.4126 0 12.0126 1.1 12.7126 2.8C12.8126 3.2 13.1126 3.2 13.4126 3.2C17.8126 3.2 22.2126 3.2 26.6126 3.2C27.7126 3.2 28.2126 3.6 28.2126 4.4C28.2126 5.2 27.6126 5.6 26.6126 5.6C22.2126 5.6 17.8126 5.6 13.4126 5.6C13.0126 5.6 12.8126 5.7 12.7126 6.1C12.0126 7.8 10.4126 8.8 8.61262 8.8C6.81262 8.8 5.21262 7.7 4.51262 6C4.51262 5.9 4.41262 5.8 4.41262 5.6Z" fill="#C52832"/>
</svg>