<svg width="25" height="35" viewBox="0 0 25 35" fill="none" xmlns="http://www.w3.org/2000/svg">
<g filter="url(#filter0_d_66_3451)">
<path d="M12.131 13.5387C13.2255 12.4876 14.1483 11.6081 15.0497 10.7071C16.6592 9.09826 18.2688 7.4894 19.8784 5.88054C21.2733 4.46474 21.2733 2.34105 19.8784 0.989607C18.5263 -0.340384 16.4446 -0.340385 15.0497 1.05396C11.7447 4.33603 8.46121 7.6181 5.17771 10.9216C3.61107 12.4876 3.61107 14.4826 5.15625 16.0271C8.43975 19.3306 11.7233 22.6341 15.0282 25.9162C16.4446 27.332 18.5478 27.3534 19.9213 26.0235C21.2948 24.672 21.2948 22.5054 19.8354 21.0682C17.3245 18.6012 14.7922 16.1558 12.131 13.5387Z" fill="white"/>
</g>
<defs>
<filter id="filter0_d_66_3451" x="6.10352e-05" y="0" width="24.9409" height="35.0001" filterUnits="userSpaceOnUse" color-interpolation-filters="sRGB">
<feFlood flood-opacity="0" result="BackgroundImageFix"/>
<feColorMatrix in="SourceAlpha" type="matrix" values="0 0 0 0 0 0 0 0 0 0 0 0 0 0 0 0 0 0 127 0" result="hardAlpha"/>
<feOffset dy="4"/>
<feGaussianBlur stdDeviation="2"/>
<feComposite in2="hardAlpha" operator="out"/>
<feColorMatrix type="matrix" values="0 0 0 0 0 0 0 0 0 0 0 0 0 0 0 0 0 0 0.25 0"/>
<feBlend mode="normal" in2="BackgroundImageFix" result="effect1_dropShadow_66_3451"/>
<feBlend mode="normal" in="SourceGraphic" in2="effect1_dropShadow_66_3451" result="shape"/>
</filter>
</defs>
</svg>
