<svg width="38" height="38" viewBox="0 0 38 38" fill="none" xmlns="http://www.w3.org/2000/svg">
<path d="M20.8386 15.8939C21.365 15.3034 21.799 14.713 22.3326 14.2007C23.1108 13.4437 24.0317 12.8487 25.0418 12.4506C26.0518 12.0524 27.1309 11.859 28.2164 11.8814C29.4642 11.8628 30.7087 12.0135 31.916 12.3295C34.6835 13.1335 36.2843 15.0331 37.0527 17.7367C37.5769 19.7543 37.8164 21.8352 37.7641 23.9192C37.7641 28.3231 37.7641 32.72 37.7641 37.1168C37.7641 37.5294 37.6503 37.6361 37.2448 37.6361C34.9752 37.6361 32.7128 37.6361 30.4432 37.6361C30.0448 37.6361 29.9595 37.5152 29.9595 37.1381C29.9595 32.9548 29.9595 28.7689 29.9595 24.5808C29.9823 23.5299 29.8577 22.4811 29.5895 21.4647C29.4029 20.6121 28.905 19.8597 28.1933 19.3545C27.4815 18.8493 26.607 18.6275 25.7405 18.7326C23.0512 18.8749 21.6496 20.2055 21.3081 22.9375C21.2288 23.589 21.1885 24.2447 21.1872 24.9011C21.1872 28.9706 21.1872 33.0401 21.1872 37.1097C21.1872 37.5152 21.0876 37.6361 20.6749 37.6361C18.3888 37.6361 16.105 37.6361 13.8236 37.6361C13.4607 37.6361 13.354 37.5437 13.354 37.1738C13.354 29.1106 13.354 21.0474 13.354 12.9842C13.354 12.5858 13.4821 12.4931 13.8592 12.4931C16.0267 12.4931 18.1943 12.4931 20.3619 12.4931C20.7603 12.4931 20.867 12.6213 20.8528 12.9984C20.8243 13.966 20.8386 14.9335 20.8386 15.8939Z" fill="white"/>
<path d="M8.42374 25.1002C8.42374 29.0891 8.42374 33.0757 8.42374 37.0599C8.42374 37.5081 8.31703 37.6433 7.85458 37.6362C5.59214 37.6362 3.3226 37.6362 1.06016 37.6362C0.697319 37.6362 0.590576 37.5509 0.590576 37.1738C0.590576 29.1106 0.590576 21.0474 0.590576 12.9842C0.590576 12.6499 0.668826 12.5288 1.02456 12.5288C3.32257 12.5288 5.62058 12.5288 7.91859 12.5288C8.35969 12.5288 8.42373 12.6925 8.41662 13.0766C8.41662 17.0798 8.419 21.0876 8.42374 25.1002Z" fill="white"/>
<path d="M9.04971 4.50351C9.05393 5.39964 8.79198 6.27694 8.29704 7.02401C7.8021 7.77108 7.09646 8.35428 6.26962 8.69982C5.44277 9.04537 4.53192 9.13764 3.65258 8.96488C2.77325 8.79213 1.96503 8.36223 1.33036 7.72956C0.695688 7.09689 0.263176 6.29003 0.0876501 5.41124C-0.0878758 4.53245 0.00148273 3.62123 0.344416 2.7933C0.687349 1.96536 1.26843 1.25791 2.01394 0.76062C2.75944 0.263327 3.63582 -0.00139355 4.53196 5.5171e-06C5.72597 0.00558346 6.86966 0.481383 7.71529 1.32435C8.56092 2.16732 9.04036 3.30952 9.04971 4.50351Z" fill="white"/>
</svg>
