<svg width="18" height="12" viewBox="0 0 18 12" fill="none" xmlns="http://www.w3.org/2000/svg">
<path d="M18 1.49653V10.5407C17.9979 10.5594 17.9979 10.5782 18 10.5968C17.9227 10.9978 17.6818 11.3608 17.3219 11.6185C16.962 11.8763 16.5075 12.0115 16.0424 11.999H1.99622C1.73181 12.0069 1.46834 11.9671 1.22223 11.8822C0.976123 11.7974 0.752583 11.6693 0.565505 11.5058C0.378426 11.3423 0.231795 11.147 0.134696 10.9319C0.0375976 10.7169 -0.00784066 10.4867 0.00110517 10.2556C0.00110517 7.42006 0.00110517 4.58446 0.00110517 1.74889C-0.000180838 1.60114 0.0177509 1.45376 0.0545808 1.30956C0.154713 0.928681 0.403027 0.589986 0.757142 0.351302C1.11126 0.112617 1.54922 -0.0112788 1.99622 0.000807569H13.0844C14.0847 0.000807569 15.0795 0.000807569 16.0798 0.000807569C16.3986 -0.00762906 16.7145 0.0569934 16.996 0.188179C17.2775 0.319365 17.5148 0.512541 17.6844 0.748639C17.8165 0.98863 17.9221 1.23908 18 1.49653ZM1.90527 0.949647L8.99252 7.22688L16.0851 0.949647H1.90527ZM1.85179 11.0876H16.0798L11.1 6.68468C11.0547 6.71814 11.0118 6.75403 10.9716 6.79217L9.42046 8.13829C9.37101 8.19907 9.30564 8.24862 9.2298 8.28281C9.15396 8.31701 9.06983 8.33485 8.98449 8.33485C8.89915 8.33485 8.81508 8.31701 8.73925 8.28281C8.66341 8.24862 8.59804 8.19907 8.54859 8.13829L6.99205 6.78281L6.85297 6.66596L1.85179 11.0876ZM1.04411 1.59934V10.4426L6.04529 6.02095L1.04411 1.59934ZM11.9505 6.00229L16.9249 10.4052V1.59934L11.9505 6.00229Z" fill="#575759"/>
</svg>
