<svg width="28" height="22" viewBox="0 0 28 22" fill="none" xmlns="http://www.w3.org/2000/svg">
<path d="M25.4418 0.343262H2.44746C1.79771 0.345145 1.17518 0.604598 0.716409 1.06471C0.257632 1.52482 -2.72946e-06 2.14801 0 2.79776V19.1613C-2.72946e-06 19.8111 0.257632 20.4343 0.716409 20.8944C1.17518 21.3545 1.79771 21.614 2.44746 21.6159H25.4418C26.0915 21.614 26.714 21.3545 27.1728 20.8944C27.6316 20.4343 27.8892 19.8111 27.8892 19.1613V2.79776C27.8892 2.14801 27.6316 1.52482 27.1728 1.06471C26.714 0.604598 26.0915 0.345145 25.4418 0.343262ZM25.1003 1.97956L13.9944 13.0855L2.79607 1.97956H25.1003ZM1.62215 18.8056V3.15349L9.49804 10.9795L1.62215 18.8056ZM2.79607 19.9866L10.6719 12.1108L13.4323 14.8428C13.5078 14.9189 13.5975 14.9794 13.6964 15.0207C13.7954 15.0619 13.9015 15.0831 14.0087 15.0831C14.1158 15.0831 14.222 15.0619 14.3209 15.0207C14.4198 14.9794 14.5095 14.9189 14.5849 14.8428L17.2742 12.1535L25.1003 19.9795L2.79607 19.9866ZM26.2742 18.8341L18.4482 11.008L26.2742 3.18197V18.8341Z" fill="#264680"/>
</svg>
