<svg width="16" height="19" viewBox="0 0 16 19" fill="none" xmlns="http://www.w3.org/2000/svg">
<path d="M7.80844 18.0048H0.721825C0.237436 18.0048 9.02303e-05 17.782 9.02303e-05 17.2879C9.02303e-05 16.3191 9.02303e-05 15.3988 9.02303e-05 14.4542C-0.00382833 13.8142 0.119923 13.1797 0.364091 12.588C0.60826 11.9964 0.967945 11.4593 1.42213 11.0083C1.87631 10.5572 2.41585 10.2013 3.00922 9.96126C3.60259 9.72123 4.23787 9.60194 4.87789 9.61033H10.7293C11.9008 9.59022 13.0394 9.99839 13.9313 10.7583C14.8231 11.5181 15.407 12.5774 15.5732 13.7373C15.6088 13.9778 15.625 14.2208 15.6216 14.4639C15.6216 15.4326 15.6216 16.3627 15.6216 17.3121C15.6353 17.4064 15.6268 17.5027 15.5969 17.5932C15.567 17.6837 15.5165 17.766 15.4493 17.8336C15.3821 17.9013 15.3002 17.9524 15.2099 17.9829C15.1196 18.0135 15.0234 18.0226 14.929 18.0096L7.80844 18.0048ZM14.3864 16.7986C14.3864 15.888 14.3864 14.9967 14.3864 14.1054C14.3789 13.9416 14.3529 13.7791 14.3089 13.621C14.1262 12.8225 13.6768 12.1101 13.0349 11.6012C12.393 11.0922 11.5969 10.8172 10.7777 10.8213H4.96508C4.75148 10.8205 4.538 10.8318 4.32568 10.8552C3.54168 10.9565 2.81361 11.3156 2.25594 11.8759C1.69827 12.4362 1.34264 13.166 1.24497 13.9504C1.17231 14.8853 1.2159 15.8347 1.20621 16.7744C1.20621 16.7744 1.20621 16.7744 1.20621 16.8132L14.3864 16.7986Z" fill="#575759"/>
<path d="M7.7981 2.71159e-06C8.63091 -0.000942927 9.44525 0.245468 10.1378 0.70796C10.8304 1.17045 11.37 1.8282 11.6883 2.5978C12.0065 3.3674 12.0891 4.21417 11.9254 5.03074C11.7617 5.84731 11.3593 6.5969 10.769 7.18442C10.1788 7.77193 9.42738 8.17094 8.61007 8.33082C7.79275 8.4907 6.94637 8.40422 6.17825 8.08241C5.41013 7.76061 4.75488 7.21794 4.2956 6.52323C3.83631 5.82852 3.59366 5.01307 3.59846 4.18028C3.60485 3.07022 4.04999 2.00776 4.83675 1.22463C5.62351 0.441506 6.68802 0.00126319 7.7981 2.71159e-06ZM7.7981 1.20128C7.20412 1.20224 6.62379 1.37935 6.13044 1.71015C5.6371 2.04094 5.25292 2.51059 5.0265 3.05972C4.80008 3.60885 4.7416 4.21279 4.85842 4.79517C4.97524 5.37755 5.26212 5.9122 5.6828 6.33153C6.10349 6.75086 6.63907 7.03601 7.22183 7.15095C7.80458 7.26589 8.40832 7.20547 8.95672 6.97728C9.50511 6.74909 9.97354 6.36337 10.3027 5.86896C10.6319 5.37455 10.8071 4.79365 10.8062 4.19968C10.8055 3.80447 10.7269 3.4133 10.5748 3.04854C10.4227 2.68379 10.2 2.35264 9.9197 2.07409C9.63935 1.79554 9.30678 1.57503 8.94105 1.42526C8.57532 1.27549 8.18364 1.19936 7.78843 1.20128H7.7981Z" fill="#575759"/>
</svg>
