<svg width="19" height="19" viewBox="0 0 19 19" fill="none" xmlns="http://www.w3.org/2000/svg">
<path d="M4.06507 0C4.67284 0.177582 5.21519 0.52956 5.62485 1.01236C6.2707 1.63883 6.90684 2.27179 7.53331 2.91118C7.84658 3.18601 8.06289 3.55448 8.15015 3.96197C8.23741 4.36947 8.19097 4.79423 8.0177 5.17324C7.79636 5.57156 7.50415 5.92615 7.15547 6.21954C6.86484 6.49564 6.5694 6.76688 6.28846 7.04782C6.27399 7.07634 6.2664 7.10791 6.2664 7.13989C6.2664 7.17187 6.27399 7.20337 6.28846 7.23189C6.54965 7.73136 6.83742 8.21645 7.15063 8.68506C8.1728 10.0931 9.46349 11.285 10.9483 12.192C11.1039 12.2867 11.2658 12.3709 11.4327 12.4439C11.4646 12.4489 11.4973 12.4467 11.5283 12.4375C11.5593 12.4283 11.5878 12.4123 11.6119 12.3906C12.0042 12.0031 12.3869 11.6059 12.7841 11.2233C13.1032 10.8849 13.5167 10.6504 13.9709 10.55C14.255 10.4886 14.5502 10.5008 14.8282 10.5856C15.1063 10.6704 15.3581 10.8249 15.5597 11.0344C16.4219 11.8627 17.2696 12.7055 18.093 13.5677C18.4143 13.9276 18.5865 14.3961 18.5748 14.8783C18.5631 15.3606 18.3683 15.8202 18.03 16.1641C17.7782 16.445 17.4924 16.692 17.2259 16.9585C17.054 17.1091 16.8922 17.2709 16.7416 17.4429C16.3757 17.9011 15.8922 18.2513 15.3428 18.456C14.7933 18.6608 14.1986 18.7124 13.6221 18.6053C12.1325 18.3748 10.7014 17.8584 9.4079 17.0844C6.82162 15.6497 4.58127 13.6656 2.84446 11.2717C1.78226 9.85245 0.942683 8.27948 0.354695 6.60707C0.0635167 5.78781 -0.0504351 4.91606 0.0204354 4.04948C0.0778788 3.31528 0.399721 2.62684 0.92624 2.11193C1.44938 1.59363 1.99192 1.085 2.52475 0.576394C2.81337 0.316714 3.16348 0.135002 3.54195 0.0484271L4.06507 0ZM1.15874 4.3595C1.17373 5.40535 1.42196 6.43466 1.88532 7.37239C3.86396 11.6875 7.39809 15.0971 11.7814 16.9197C12.5886 17.2933 13.469 17.482 14.3583 17.4719C14.6171 17.4727 14.8735 17.4218 15.1123 17.3219C15.3511 17.2221 15.5674 17.0755 15.7485 16.8906C16.2329 16.4062 16.6737 15.9509 17.1484 15.4859C17.2565 15.4073 17.3445 15.3042 17.4051 15.185C17.4657 15.0659 17.4973 14.9341 17.4973 14.8005C17.4973 14.6668 17.4657 14.5351 17.4051 14.416C17.3445 14.2968 17.2565 14.1937 17.1484 14.1151L15.114 12.0855C15 11.9666 14.8786 11.855 14.7507 11.7513C14.6355 11.6556 14.492 11.6004 14.3423 11.5943C14.1926 11.5882 14.0451 11.6314 13.9224 11.7173C13.8137 11.7828 13.7143 11.8627 13.6269 11.9547C13.1425 12.4391 12.7017 12.8847 12.2319 13.3449C12.1151 13.4805 11.9567 13.5735 11.7814 13.6095C11.6061 13.6454 11.4238 13.6222 11.2631 13.5435C10.8853 13.3304 10.5026 13.1172 10.1393 12.8847C8.76091 11.9699 7.5308 10.8493 6.49186 9.56183C5.96312 8.92867 5.52614 8.22421 5.19374 7.46924C5.10244 7.28599 5.07152 7.07854 5.10545 6.87664C5.13939 6.67475 5.23646 6.48881 5.38265 6.34548L6.79703 4.98432C6.89394 4.92052 6.97403 4.83436 7.03053 4.73302C7.08703 4.63169 7.11827 4.51817 7.12159 4.40219C7.12492 4.28622 7.10029 4.17116 7.04969 4.06675C6.99909 3.96234 6.92406 3.87169 6.83097 3.80244C6.22549 3.17274 5.60059 2.56238 4.97572 1.95689C4.76744 1.7486 4.52529 1.57425 4.29763 1.3805C4.18086 1.25795 4.02324 1.18238 3.85457 1.1681C3.6859 1.15382 3.51784 1.2018 3.38213 1.30298C3.26466 1.37612 3.15578 1.46225 3.05756 1.55972C2.66521 1.94723 2.28252 2.34929 1.88047 2.72711C1.64964 2.93032 1.4666 3.18203 1.34435 3.46422C1.22209 3.74641 1.16366 4.05211 1.17328 4.3595H1.15874Z" fill="#575759"/>
</svg>
