<svg width="15" height="15" viewBox="0 0 15 15" fill="none" xmlns="http://www.w3.org/2000/svg">
<path d="M0 4.52025C0 4.42137 1.40833e-05 4.31425 0.065933 4.21537C0.128424 3.93525 0.268311 3.6783 0.469678 3.47378C0.840472 3.09475 1.21951 2.71572 1.60678 2.34492C1.73692 2.18416 1.91572 2.06994 2.11629 2.01942C2.31687 1.96891 2.52843 1.98482 2.71919 2.06477C2.88325 2.14127 3.03356 2.24427 3.16413 2.36964C3.70796 2.89699 4.23532 3.44083 4.77091 3.97642C4.908 4.08924 5.01559 4.23368 5.08448 4.39731C5.15338 4.56094 5.18151 4.73886 5.16641 4.91576C5.11523 5.18405 4.97607 5.42761 4.77091 5.60791L3.82331 6.55549C3.65851 6.71205 3.65854 6.76149 3.74918 6.96749C4.13356 7.76205 4.64885 8.48628 5.27353 9.10985C5.84948 9.74555 6.50923 10.3 7.23462 10.7578C7.49006 10.9226 7.76197 11.0545 8.05861 11.1945C8.17397 11.2605 8.2646 11.1945 8.35523 11.1204L9.34403 10.1234C9.52262 9.92337 9.7637 9.78976 10.0279 9.74432C10.1583 9.72914 10.2904 9.74028 10.4164 9.77708C10.5423 9.81388 10.6596 9.87559 10.7613 9.95856C10.8357 10.0121 10.9047 10.0729 10.9673 10.1398C11.4946 10.6672 12.022 11.1863 12.5411 11.7219C12.6789 11.8556 12.7931 12.0116 12.8789 12.1833C12.955 12.3431 12.9777 12.5231 12.9436 12.6967C12.9095 12.8703 12.8203 13.0283 12.6894 13.1474C12.2774 13.6088 11.8407 14.0538 11.3792 14.4822C11.1751 14.6518 10.9374 14.7761 10.6818 14.8471C10.4262 14.9181 10.1584 14.9342 9.89608 14.8942C8.98002 14.7925 8.0927 14.5126 7.28406 14.0702C5.98445 13.435 4.79185 12.601 3.74918 11.5983C2.30112 10.2121 1.17586 8.5242 0.453233 6.65437C0.257914 6.17111 0.127657 5.66404 0.065933 5.14648C0.0695052 5.12742 0.0695052 5.10786 0.065933 5.0888L0 4.52025Z" fill="#1A1A1A"/>
<path d="M13.093 7.70085V7.54429C12.8381 6.10105 12.1348 4.77487 11.083 3.75421C10.0313 2.73354 8.68467 2.07032 7.23444 1.85878H7.07788L7.25913 0.474487H7.53106L7.82769 0.540406L8.49511 0.696964C9.96957 1.09707 11.3026 1.902 12.3432 3.02061C13.3024 4.0388 13.9884 5.2832 14.3372 6.6379C14.3613 6.71352 14.3805 6.79058 14.3949 6.86862L14.5267 7.47837L13.093 7.70085ZM7.41569 1.56215C8.87069 1.81362 10.2158 2.49893 11.2745 3.52822C12.3332 4.5575 13.0561 5.88271 13.3484 7.33005L14.09 7.19822L14.0323 6.9263L13.9829 6.71206C13.6427 5.41175 12.9795 4.21848 12.0547 3.24308C11.0589 2.16788 9.77913 1.39655 8.3633 1.01832L7.74531 0.87H7.54756L7.41569 1.56215Z" fill="#1A1A1A"/>
<path d="M10.2172 7.89032L10.176 7.73377C10.043 6.96966 9.67171 6.26722 9.11521 5.72699C8.5587 5.18677 7.84554 4.83646 7.07782 4.72622H6.92126L7.11077 3.34192H7.27557C8.33501 3.48171 9.32185 3.95715 10.0914 4.69855C10.861 5.43996 11.3729 6.40836 11.5521 7.46185V7.62665L10.2172 7.89032ZM7.30032 4.42958C8.07221 4.57436 8.78446 4.94292 9.34851 5.48939C9.91257 6.03586 10.3035 6.73612 10.4726 7.50305L11.2224 7.37121C11.0252 6.44514 10.5559 5.59906 9.87477 4.94139C9.19361 4.28372 8.33161 3.84441 7.39919 3.67975L7.30032 4.42958Z" fill="#1A1A1A"/>
</svg>
