<svg width="19" height="21" viewBox="0 0 19 21" fill="none" xmlns="http://www.w3.org/2000/svg">
<path d="M4.37347 0.506976C5.00388 0.750084 5.52972 1.20554 5.86039 1.79476C6.28015 2.44218 6.69284 3.10379 7.0628 3.78679C7.35814 4.27774 7.4667 4.85869 7.36868 5.42318C7.29954 5.78498 7.11479 6.1146 6.84221 6.36235C6.47327 6.71267 6.08363 7.04045 5.67541 7.34408C5.32128 7.55547 5.06006 7.89281 4.94397 8.28855C4.82789 8.6843 4.8655 9.10927 5.04932 9.47845C5.35533 10.2777 5.79571 11.0189 6.35134 11.6698C7.03184 12.5577 7.80452 13.3709 8.65646 14.0959C9.11849 14.5098 9.66818 14.8139 10.2644 14.9852C10.5156 15.0508 10.7797 15.0485 11.0297 14.9784C11.2797 14.9084 11.5066 14.7733 11.6873 14.5868C12.0857 14.2097 12.4841 13.8255 12.8967 13.4698C13.1964 13.2056 13.5725 13.0438 13.9704 13.008C14.3683 12.9721 14.7673 13.0641 15.1094 13.2706C15.3614 13.3948 15.5999 13.5451 15.8208 13.7188C16.6554 14.3104 17.4088 15.0088 18.0619 15.7962C18.1855 15.9292 18.2799 16.0866 18.3391 16.2582C18.3982 16.4299 18.4207 16.6121 18.4053 16.793C18.3899 16.9739 18.3368 17.1495 18.2495 17.3087C18.1622 17.4678 18.0426 17.607 17.8983 17.7172C17.3315 18.2901 16.7068 18.8028 16.0343 19.2469C14.8459 19.9507 13.4533 20.2292 12.0857 20.0366C10.6144 19.8243 9.21609 19.2605 8.00901 18.393C6.40495 17.2623 4.96796 15.9115 3.74026 14.3804C2.60252 13.0589 1.66082 11.5805 0.94419 9.99077C0.436859 8.8947 0.163074 7.70506 0.140239 6.49749C0.103292 5.54279 0.294452 4.59304 0.697803 3.72695C1.10115 2.86086 1.70508 2.10338 2.4596 1.51728C2.69438 1.3323 2.9007 1.10467 3.17106 0.93392C3.43013 0.766923 3.69856 0.614886 3.97501 0.478577L4.37347 0.506976Z" fill="#264680"/>
</svg>
