<svg width="241" height="241" viewBox="0 0 241 241" fill="none" xmlns="http://www.w3.org/2000/svg">
<path d="M174.634 116.245V124.626H166.559V132.886H191.034V140.762C188.33 141.217 185.079 140.904 183.279 142.377C182.105 143.338 183.058 146.888 183.058 149.691H216.226V157.937H224.301V174.535H216.361V191.269H208.073V199.55H224.316L224.23 199.443V216.518H199.329C199.329 213.772 199.329 211.033 199.329 208.13H191.603V216.397H199.429V224.373L199.521 224.28L191.418 224.7V233.131L191.496 233.067H182.845V240.985H174.805V224.579H182.631V208.159H174.763V215.985H158.022V208.095L149.99 207.732V199.401L149.854 199.529H158.022V207.625H166.033V149.997H157.709V157.609H149.94V141.089H157.631V124.968H149.548V133.064H141.26V141.061H133V124.897H116.565C116.359 127.842 116.174 130.588 115.982 133.335L116.096 133.249L99.3835 133.157V124.854L91.6215 124.491V116.309H108.063C108.063 111.151 108.063 106.349 108.013 101.511C107.981 101.174 107.873 100.85 107.697 100.561C107.521 100.273 107.281 100.028 106.996 99.8461C103.169 97.9821 99.6753 100.131 99.6255 104.264C99.6255 105.438 99.5116 106.612 99.4405 107.871H91.3796V99.6682C89.2452 99.6682 87.4879 99.775 85.6879 99.6682C83.5535 99.5117 83.0057 100.55 83.0128 102.514C83.0555 117.312 83.0555 132.111 83.0128 146.909C83.0128 149.172 83.8595 149.84 86.0224 149.798C90.5117 149.698 95.0081 149.798 99.5401 149.855L99.4547 157.987L99.5472 157.894H91.4294V174.777L91.529 174.684H83.0342V166.318H74.6034V157.851H49.8162L49.923 157.944V149.691H57.8913C57.8913 146.568 57.8913 143.829 57.8913 141.089L57.813 141.161H74.4824V108.177H50.1079V99.7181H66.2438V83.3118H58.1118V91.2589H50.0368V83.3332L57.7632 82.9561V74.9736H41.7412V66.5428C47.625 66.5428 53.5158 66.5926 59.4138 66.5428C67.7308 66.4574 66.379 67.8305 66.4573 59.4282C66.5142 53.6085 66.4573 47.7888 66.4573 41.5777H74.4896V33.3106H66.7347V24.9581C71.0034 24.9581 75.3789 24.7091 79.6833 25.0363C83.4896 25.3209 82.9987 23.0229 83.084 20.668C83.1765 18.1138 83.1409 16.1786 79.5694 16.4419C75.3647 16.7549 71.1173 16.513 66.6849 16.513V8.33122H74.5892V0.192181H82.8777V16.2427H99.5827V8.50909H107.893V16.2142H116.138V0.128174H132.851V8.18897H124.968V33.0189H132.794C132.929 35.9145 133.05 38.5114 133.178 41.3145H141.182V33.4101H166.033V41.4354H149.605C149.769 44.5374 149.904 47.1271 150.047 49.7453L150.146 49.6385L141.409 50.0583V57.8203H133.192V50.1365H124.882V66.3934H141.288C141.139 69.346 141.004 71.9285 140.883 74.5182L133.242 74.9664V82.8352H141.374C141.167 79.8471 140.975 77.1435 140.783 74.4186L149.492 74.8739V66.5143C154.173 66.5143 158.499 66.3578 162.803 66.5713C165.556 66.7065 166.431 65.7602 166.31 63.0566C166.118 58.8377 166.261 54.5974 166.261 50.1081H174.599V66.4717H199.422V74.7602L199.521 74.6677H191.325V82.9135C190.047 83.0762 188.757 83.1285 187.469 83.07C183.912 82.6075 182.382 83.6605 182.759 87.5664C183.136 91.4723 182.845 95.4493 182.845 99.8675L174.926 99.2059V74.9664H157.851V83.134H141.587V91.5932H149.79V99.7963H157.979V107.921H166.268V100.01L174.99 99.156C174.872 102.215 174.755 105.272 174.642 108.327L174.734 108.234H166.559V116.345H174.734L174.634 116.245ZM174.634 149.968V158.058H182.539C182.752 160.669 182.959 163.273 183.186 166.019H207.675V158.193C199.094 158.193 190.763 158.193 182.446 158.193C182.624 155.482 182.802 152.779 183.015 149.606L174.478 150.139V141.602C165.94 141.025 165.542 139.73 166.78 149.499C169.363 149.655 171.988 149.819 174.62 149.968H174.634ZM108.469 74.8668H116.103V41.4283H107.949V25.1857H99.6326V33.2465H83.3188V41.3003L91.6428 41.8054V66.7491H107.779C108.07 69.7586 108.327 72.3767 108.568 74.9736H99.8958V82.7996H107.828C108.063 79.8755 108.27 77.3712 108.476 74.8953L108.469 74.8668ZM199.329 199.401V174.834H174.862V199.401H199.329ZM141.331 108.384C144.177 108.142 147.606 108.825 148.865 107.466C150.253 105.972 149.577 102.6 149.89 99.6398C141.701 99.6398 134.195 99.59 126.689 99.7252C126.239 99.8476 125.827 100.084 125.494 100.412C125.162 100.74 124.919 101.148 124.79 101.596C124.626 106.392 124.704 111.201 124.704 116.331H133.121V124.32H141.31L141.331 108.384ZM66.628 82.7213H91.1448V75.002H66.6564L66.628 82.7213ZM116.537 83.3047V99.4335H124.64V91.3086H132.765V83.3047H116.537ZM74.9164 41.6915V57.8345H82.7852V41.6915H74.9164ZM116.601 33.3106V41.1722H124.427V33.3106H116.601ZM166.054 116.601H158.164V124.427H166.054V116.601Z" fill="#264680"/>
<path d="M116.045 233.337L108.219 232.626V224.387C105.266 224.6 101.887 223.882 100.393 225.234C99.0127 226.479 99.6815 229.958 99.3471 232.889H83.1187V240.943H66.6911V232.91C70.6184 232.91 74.5883 232.654 78.5156 232.989C82.2151 233.309 83.7376 232.142 83.1258 228.4C82.9847 227.119 82.9135 225.832 82.9124 224.544H66.7409V208.13H74.6097V216.163H82.9907V224.152H91.3716V216.276H99.4182V208.009H91.4997V191.575H83.1969V199.315H66.7054V174.642L66.5986 174.734H74.7804V182.56H91.4854V174.642L91.3858 174.734H99.5036L99.4111 174.642C99.5463 177.253 99.6814 179.864 99.8237 182.745H108.262L108.19 182.674V191.105L116.301 191.525L116.201 191.446V199.401H99.9091V207.753H116.123V216.205H108.297V224.416H116.415C116.251 227.688 116.102 230.541 115.96 233.394L116.045 233.337Z" fill="#264680"/>
<path d="M57.9267 183.037V240.971H0.00683594V183.037H57.9267ZM8.35223 232.725H49.5457V191.56H8.35223V232.725Z" fill="#264680"/>
<path d="M183.094 0.0639648H240.964V57.9483H183.094V0.0639648ZM191.482 49.6313H232.647V8.43784H191.461L191.482 49.6313Z" fill="#264680"/>
<path d="M0 0H57.8486V57.8842H0V0ZM8.31695 49.5602H49.6242V8.44501H8.31695V49.5602Z" fill="#264680"/>
<path d="M199.449 74.7461H207.709C207.837 71.9714 207.951 69.4813 208.072 66.7564H216.062V74.4615H224.521V66.7065H232.803V74.618H240.899V91.4297H224.535V99.6186H216.475C216.304 102.856 216.162 105.716 216.019 108.583L216.126 108.476H191.46V124.449H182.922V116.245H174.684L174.783 116.345V108.234L174.691 108.327H191.46V99.6257H199.556V74.6536L199.449 74.7461ZM208.236 83.2836V91.1522H216.062V83.2836H208.236Z" fill="#264680"/>
<path d="M24.9792 157.851V174.414H16.6053L16.2282 166.339H8.22433V158.079H0.078125V141.26H8.14608V133.085H16.3065V124.904H33.1752V132.851H41.2787C41.3925 130.19 41.4992 127.7 41.6273 124.804H49.6455V116.622H57.7062V124.697H49.9798V132.957H57.8059C57.8059 135.938 57.8059 138.549 57.8059 141.168L57.8841 141.096H24.9792V149.926L25.0503 149.847H16.6124V157.951H25.0645L24.9792 157.851Z" fill="#264680"/>
<path d="M216.02 108.583H240.921V116.203H233.223V124.74H240.999V132.936C238.346 132.936 235.834 132.936 233.316 132.936C233.081 130.332 232.86 127.721 232.64 125.11H224.814V132.872H233.437C233.209 135.483 232.981 138.094 232.725 141.153H240.879V149.556H224.515V141.509L216.255 141.146V133.32H208.087C207.966 135.903 207.853 138.4 207.725 141.146H199.813V133.228H207.682V125.003L199.771 124.633V116.551H216.134C216.134 113.599 216.134 111.087 216.134 108.583H216.02Z" fill="#264680"/>
<path d="M15.9081 74.3759C16.1479 75.6626 16.3141 76.9619 16.4061 78.2676C16.4843 83.1055 16.4488 83.1055 21.4361 83.0984C26.7721 83.0984 32.108 83.0984 37.4582 83.0984C38.6392 83.0984 39.8273 83.198 41.2217 83.2691V91.3727H24.9223V99.5757H8.34527V124.434H0.078125V66.685H8.13184V74.8028L15.9578 74.4185L15.9081 74.3759Z" fill="#264680"/>
<path d="M133.121 199.4H124.868C124.754 196.803 124.647 194.32 124.512 191.418H116.231L116.33 191.496V183.037L108.22 182.674L108.291 182.745L107.885 174.641H99.4404L99.5329 174.734V157.851L99.4404 157.944H108.22V149.812H116.48V165.997H124.726V158.221H133.185V166.403H141.061V182.766L141.132 182.695H132.936V174.869H124.911V191.418H133.028V199.571L133.121 199.4Z" fill="#264680"/>
<path d="M133.298 224.586H141.024C141.174 221.74 141.316 219.193 141.465 216.44H149.555V224.266H166.018V232.804H158.085V240.857H133.298V224.586Z" fill="#264680"/>
<path d="M233.073 199.55H240.9V233.045H224.266L224.344 233.109V224.301H233.137V199.45L233.073 199.55Z" fill="#264680"/>
<path d="M66.7068 174.642H49.8808V166.517H41.6563C41.5282 169.213 41.4145 171.711 41.2864 174.421H33.375V166.325H41.4073V157.944H49.9448L49.8381 157.851V166.389H66.6357V174.706L66.7068 174.642Z" fill="#264680"/>
<path d="M150.132 8.53033C149.954 11.0133 149.769 13.5105 149.556 16.3564H157.688V24.6734H149.741V16.7192H141.502C141.367 19.2022 141.224 21.799 141.075 24.6306H133.249V16.4489H141.21V8.1106L150.167 8.56594L150.132 8.53033Z" fill="#264680"/>
<path d="M224.28 233.045V240.871H208.101C207.98 238.438 207.866 235.948 207.724 233.045H199.457L199.55 233.131V224.266L199.457 224.358H207.923V233.117H224.358L224.28 233.045Z" fill="#264680"/>
<path d="M149.954 199.401H141.004L141.146 199.529V182.653L141.075 182.724H149.926L149.854 182.646V199.536L149.954 199.401Z" fill="#264680"/>
<path d="M15.9648 74.4255L16.7404 66.692H32.8691V74.3829H15.915L15.9648 74.4255Z" fill="#264680"/>
<path d="M25.0283 116.203V108.377H41.1429V116.203H25.0283Z" fill="#264680"/>
<path d="M241.006 182.702H233.237V166.616H241.006V182.702Z" fill="#264680"/>
<path d="M166.517 7.94695V0.120911H174.385V7.94695H166.517Z" fill="#264680"/>
<path d="M174.442 24.7447H166.559V16.6554H174.477L174.442 24.7447Z" fill="#264680"/>
<path d="M150.196 8.60168L149.484 0.156677H157.645V8.01833L150.096 8.50216L150.196 8.60168Z" fill="#264680"/>
<path d="M141.003 199.401V207.604H133.177V199.401L133.063 199.521H141.181L141.003 199.401Z" fill="#264680"/>
<path d="M224.344 199.55V191.631H233.074V199.55L233.152 199.443H224.259L224.344 199.55Z" fill="#264680"/>
<path d="M115.968 233.408L124.42 232.697V240.843H116.53C116.366 238.282 116.21 235.791 116.046 233.301L115.968 233.408Z" fill="#264680"/>
<path d="M24.9785 149.918H32.8046V157.851H24.9785L25.071 157.944V149.84L24.9785 149.918Z" fill="#264680"/>
<path d="M150.075 49.7096H157.758V57.863H149.591C149.79 55.0171 149.975 52.3135 150.167 49.61L150.075 49.7096Z" fill="#264680"/>
<path d="M199.457 233.038V240.864H191.525V233.038L191.446 233.102H199.55L199.457 233.038Z" fill="#264680"/>
<path d="M149.911 182.738V166.545H157.694V182.667H149.868L149.911 182.738Z" fill="#264680"/>
<path d="M108.32 149.94H99.4268V141.061L107.893 141.445C108.035 144.312 108.178 147.123 108.32 149.94Z" fill="#264680"/>
<path d="M115.996 133.341L124.469 132.957V141.061H116.523C116.387 138.478 116.252 135.867 116.11 133.235L115.996 133.341Z" fill="#264680"/>
<path d="M99.5399 141.167H91.7139V133.035H99.5399V141.167Z" fill="#264680"/>
<path d="M107.928 50.0581V57.7704H99.874V50.0581H107.928Z" fill="#264680"/>
<path d="M183.137 183.037H191.119V191.012H183.137V183.037Z" fill="#264680"/>
<path d="M16.6338 224.302V199.721H41.3427V224.302H16.6338Z" fill="#264680"/>
<path d="M224.38 16.762V41.2575H199.678V16.762H224.38Z" fill="#264680"/>
<path d="M16.5771 16.6269H41.1723V41.2078H16.5771V16.6269Z" fill="#264680"/>
</svg>
