<svg width="25" height="35" viewBox="0 0 25 35" fill="none" xmlns="http://www.w3.org/2000/svg">
<g filter="url(#filter0_d_66_3452)">
<path d="M12.8099 13.5387C11.7154 12.4876 10.7926 11.6081 9.89124 10.7071C8.28168 9.09826 6.67212 7.4894 5.06256 5.88054C3.6676 4.46474 3.6676 2.34105 5.06256 0.989607C6.41459 -0.340384 8.49629 -0.340385 9.89124 1.05396C13.1962 4.33603 16.4797 7.6181 19.7632 10.9216C21.3299 12.4876 21.3298 14.4826 19.7847 16.0271C16.5012 19.3306 13.2177 22.6341 9.9127 25.9162C8.49628 27.332 6.39313 27.3534 5.01963 26.0235C3.64614 24.672 3.64614 22.5054 5.10547 21.0682C7.61639 18.6012 10.1488 16.1558 12.8099 13.5387Z" fill="white"/>
</g>
<defs>
<filter id="filter0_d_66_3452" x="0" y="0" width="24.9409" height="35.0001" filterUnits="userSpaceOnUse" color-interpolation-filters="sRGB">
<feFlood flood-opacity="0" result="BackgroundImageFix"/>
<feColorMatrix in="SourceAlpha" type="matrix" values="0 0 0 0 0 0 0 0 0 0 0 0 0 0 0 0 0 0 127 0" result="hardAlpha"/>
<feOffset dy="4"/>
<feGaussianBlur stdDeviation="2"/>
<feComposite in2="hardAlpha" operator="out"/>
<feColorMatrix type="matrix" values="0 0 0 0 0 0 0 0 0 0 0 0 0 0 0 0 0 0 0.25 0"/>
<feBlend mode="normal" in2="BackgroundImageFix" result="effect1_dropShadow_66_3452"/>
<feBlend mode="normal" in="SourceGraphic" in2="effect1_dropShadow_66_3452" result="shape"/>
</filter>
</defs>
</svg>
