<svg width="27" height="24" viewBox="0 0 27 24" fill="none" xmlns="http://www.w3.org/2000/svg">
<path d="M26.8463 9.0566C26.7897 9.11321 26.6765 9.16981 26.6199 9.22641C23.7331 12.1132 20.8463 15 17.9595 17.8868C17.9029 17.9434 17.7897 18 17.6765 18.1132C17.6765 16.1887 17.6765 14.3208 17.6765 12.4528C17.5633 12.4528 17.5067 12.4528 17.4501 12.4528C13.8275 12.5094 10.4312 13.2453 7.26143 15C4.77086 16.3585 2.73313 18.1698 1.31803 20.6604C0.808601 21.6226 0.412375 22.6415 0.185959 23.717C0.185959 23.7736 0.129356 23.8302 0.129356 24C-0.0970594 22.3019 -0.0404556 20.6604 0.412375 19.0755C1.20483 16.0189 2.90294 13.5283 5.16709 11.4906C7.65766 9.22641 10.5445 7.64151 13.7709 6.67924C15.0161 6.28302 16.2614 6.0566 17.5067 5.77358C17.5633 5.77358 17.6199 5.71698 17.7331 5.71698C17.7331 3.84906 17.7331 1.92453 17.7331 0C17.8463 0.113208 17.9029 0.169811 18.0161 0.226415C20.9029 3.0566 23.7897 5.9434 26.6765 8.83019C26.7331 8.88679 26.7897 8.9434 26.8463 9.0566Z" fill="#D5D5D5"/>
</svg>
