<svg width="16" height="17" viewBox="0 0 16 17" fill="none" xmlns="http://www.w3.org/2000/svg">
<path fill-rule="evenodd" clip-rule="evenodd" d="M7.94574 0.316329C6.51562 0.317353 5.11224 0.70406 3.88344 1.43571C2.65465 2.16737 1.64593 3.21688 0.963534 4.4737C0.281141 5.73051 -0.0496172 7.14811 0.00602182 8.57715C0.0616608 10.0062 0.501674 11.3938 1.27972 12.5937L0.0766823 15.2552C0.0204336 15.376 0.000233878 15.5105 0.0185446 15.6425C0.0368552 15.7745 0.0929234 15.8984 0.179932 15.9993C0.266941 16.1002 0.381189 16.1739 0.509044 16.2114C0.636898 16.249 0.772896 16.2489 0.900669 16.211L4.19661 15.2964C5.26471 15.8671 6.44892 16.1866 7.65913 16.2305C8.86933 16.2744 10.0736 16.0416 11.1803 15.5498C12.2869 15.058 13.2667 14.3201 14.0452 13.3925C14.8236 12.4648 15.3801 11.3717 15.6723 10.1965C15.9645 9.02128 15.9846 7.79488 15.7313 6.61068C15.4779 5.42648 14.9577 4.31571 14.2102 3.36292C13.4628 2.41014 12.5077 1.64048 11.4179 1.11253C10.328 0.584579 9.13204 0.312268 7.92105 0.316329H7.94574ZM7.94574 14.835C6.78801 14.8329 5.65124 14.526 4.6498 13.9451C4.54382 13.8864 4.42485 13.8553 4.30374 13.8544C4.24082 13.8464 4.17715 13.8464 4.11424 13.8544L1.94715 14.4559L2.69695 12.808C2.748 12.697 2.76878 12.5746 2.7572 12.453C2.74563 12.3314 2.70209 12.2151 2.63102 12.1158C1.819 11.0036 1.38315 9.66134 1.38684 8.28428C1.37868 6.9788 1.75833 5.7003 2.47768 4.61086C3.19703 3.52142 4.22364 2.67012 5.42741 2.16487C6.63118 1.65962 7.9579 1.52319 9.23931 1.77286C10.5207 2.02254 11.6991 2.64709 12.6251 3.56732C13.5511 4.48755 14.1831 5.66202 14.4408 6.94183C14.6985 8.22165 14.5704 9.54916 14.0727 10.7561C13.575 11.963 12.7301 12.9949 11.6452 13.7211C10.5603 14.4473 9.28424 14.8349 7.97873 14.835H7.94574Z" fill="#1A1A1A"/>
<path fill-rule="evenodd" clip-rule="evenodd" d="M11.0192 9.45436C10.8576 9.32652 10.669 9.23709 10.4677 9.19284C10.2664 9.14858 10.0577 9.15067 9.85738 9.19893C9.56074 9.32253 9.36297 9.7922 9.17345 10.0229C9.13183 10.0813 9.06998 10.1221 8.9999 10.1374C8.92981 10.1526 8.85657 10.1412 8.79445 10.1053C7.68837 9.68046 6.75889 8.89332 6.15769 7.87231C6.10598 7.80863 6.08133 7.7272 6.08904 7.64553C6.09674 7.56387 6.13617 7.48849 6.19888 7.4356C6.42006 7.22114 6.58433 6.95493 6.6768 6.66105C6.69314 6.34103 6.61581 6.02319 6.45431 5.74642C6.29775 5.40859 6.12471 4.92244 5.77863 4.73292C5.61518 4.65548 5.43247 4.62823 5.25353 4.65463C5.0746 4.68103 4.90751 4.75989 4.7734 4.88124C4.53921 5.08474 4.35441 5.3389 4.23306 5.62443C4.1117 5.90996 4.05696 6.21938 4.07298 6.52921C4.0746 6.70423 4.09674 6.87845 4.13891 7.04832C4.24688 7.44702 4.41353 7.82746 4.63333 8.17718C4.78989 8.4491 4.96292 8.70454 5.1442 8.95997C5.74906 9.7839 6.50723 10.4833 7.37717 11.0199C7.81277 11.2956 8.28041 11.5169 8.76971 11.6791C9.28436 11.9166 9.85528 12.0051 10.4177 11.9346C10.7329 11.885 11.0312 11.7593 11.2868 11.5683C11.5424 11.3773 11.7475 11.1269 11.8844 10.8387C11.9592 10.6649 11.9821 10.4731 11.9503 10.2866C11.8515 9.86636 11.3323 9.64388 11.0192 9.45436Z" fill="#1A1A1A"/>
</svg>
