<svg width="25" height="25" viewBox="0 0 25 25" fill="none" xmlns="http://www.w3.org/2000/svg">
<path fill-rule="evenodd" clip-rule="evenodd" d="M20.7746 3.95932C18.7074 1.84764 15.9386 0.565858 12.9909 0.355994C10.0432 0.14613 7.12066 1.02272 4.77507 2.82022C2.42949 4.61771 0.823166 7.21174 0.259328 10.1126C-0.304511 13.0134 0.213157 16.0203 1.71464 18.5656L0 24.8406L6.40312 23.1544C8.17999 24.122 10.1712 24.6284 12.1944 24.6272C14.5822 24.6214 16.9149 23.9088 18.8985 22.5794C20.882 21.25 22.4277 19.3633 23.3406 17.1569C24.2536 14.9505 24.4932 12.5232 24.0289 10.1809C23.5647 7.83866 22.4174 5.68628 20.7319 3.99492L20.7746 3.95932ZM12.2371 22.5853C10.4327 22.5807 8.6629 22.0891 7.11458 21.1624L6.7447 20.9418L2.9312 21.945L3.94863 18.2312L3.71388 17.847C2.52794 15.9567 2.00368 13.7259 2.22348 11.5053C2.44328 9.2846 3.39469 7.19982 4.92819 5.57868C6.46168 3.95754 8.49028 2.89192 10.6953 2.54916C12.9004 2.20641 15.1569 2.60597 17.1101 3.68514C19.0633 4.7643 20.6026 6.46184 21.4861 8.51101C22.3696 10.5602 22.5472 12.8448 21.991 15.0059C21.4348 17.167 20.1764 19.0821 18.4134 20.4502C16.6504 21.8182 14.4829 22.5618 12.2514 22.564L12.2371 22.5853ZM17.7581 15.0509C17.4592 14.8944 15.9723 14.1687 15.6948 14.062C15.4173 13.9553 15.211 13.9126 14.9834 14.2186C14.7557 14.5245 14.2008 15.2003 14.0229 15.3995C13.845 15.5987 13.6743 15.6272 13.3683 15.4778C12.4764 15.1221 11.6531 14.6142 10.9351 13.9766C10.2702 13.3546 9.70403 12.6349 9.25608 11.8422C9.07822 11.5434 9.25612 11.3798 9.38418 11.2304C9.51224 11.081 9.69012 10.8747 9.83952 10.6968C9.963 10.5424 10.0658 10.3726 10.1454 10.1917C10.1896 10.111 10.2128 10.0205 10.2128 9.92846C10.2128 9.83645 10.1896 9.74592 10.1454 9.66522C10.0671 9.5087 9.43399 8.02173 9.21344 7.41699C8.99289 6.81225 8.71542 6.90476 8.50198 6.89764H7.92566C7.77117 6.90168 7.61927 6.93796 7.47961 7.00412C7.33994 7.07027 7.21558 7.16488 7.11458 7.28186C6.77193 7.60445 6.50067 7.99518 6.3181 8.42894C6.13553 8.8627 6.0457 9.32983 6.05452 9.80036C6.15267 10.9423 6.58301 12.0306 7.29245 12.9308C7.44185 13.1371 9.42684 16.1893 12.4648 17.4984C13.0271 17.7419 13.6018 17.9556 14.1865 18.1387C14.8043 18.3256 15.4568 18.3669 16.0932 18.2596C16.5133 18.1763 16.9117 18.0068 17.2631 17.7619C17.6145 17.517 17.9115 17.202 18.1352 16.8367C18.3327 16.3901 18.3945 15.8953 18.313 15.4138C18.2348 15.2644 18.0355 15.1861 17.7367 15.0367L17.7581 15.0509Z" fill="#264680"/>
</svg>
