<svg width="32" height="33" viewBox="0 0 32 33" fill="none" xmlns="http://www.w3.org/2000/svg">
<path d="M13.6102 19.8102L10.8995 22.9619L2.91696 32.2464C2.8131 32.3816 2.66417 32.4751 2.49723 32.5098C1.72174 32.5098 0.939125 32.5098 0 32.5098L12.422 18.0386L0.0355208 0.0386942C0.348562 0.0386942 0.554885 0.00308654 0.746979 0.00308654C3.40783 0.00308654 6.0758 0.00308654 8.74376 0.00308654C8.9341 -0.0119899 9.12473 0.0283901 9.29264 0.119289C9.46055 0.210188 9.59862 0.347698 9.69006 0.515316C12.1991 4.18644 14.7225 7.85297 17.26 11.5146C17.3525 11.6498 17.4592 11.7849 17.6157 11.9912L19.7501 9.55098C22.3683 6.51068 24.9769 3.46795 27.5761 0.422909C27.6853 0.277039 27.8307 0.162313 27.998 0.0899345C28.1652 0.0175558 28.3484 -0.0100195 28.5295 0.0102081C29.1555 0.0102081 29.7817 0.0102081 30.607 0.0102081L18.7967 13.7485L31.6741 32.4528C31.4109 32.4528 31.233 32.5169 31.0551 32.5169C28.3444 32.5169 25.6338 32.5169 22.9232 32.5169C22.7424 32.5245 22.563 32.482 22.4048 32.3941C22.2466 32.3062 22.1157 32.1763 22.0267 32.0187C19.3801 28.1484 16.724 24.2853 14.0584 20.4292C13.9375 20.2727 13.7952 20.0876 13.6102 19.8102ZM4.03391 2.13034L4.48926 2.8418L10.5011 11.5714C14.7699 17.7374 19.0148 23.9033 23.2362 30.0693C23.3429 30.2187 23.4995 30.4393 23.6417 30.4464C24.9579 30.4464 26.2741 30.4464 27.7184 30.4464L25.7619 27.6006C20.0275 19.2623 14.2885 10.9288 8.54462 2.60001C8.42367 2.42215 8.20313 2.18731 8.01815 2.18731C6.73752 2.13751 5.45683 2.1517 4.03391 2.1517V2.13034Z" fill="white"/>
</svg>
