<svg width="37" height="26" viewBox="0 0 37 26" fill="none" xmlns="http://www.w3.org/2000/svg">
<path d="M35.6654 3.98406C35.4574 3.21169 35.0503 2.50752 34.4847 1.94192C33.9191 1.37632 33.2149 0.969105 32.4425 0.761135C29.5966 -0.000125098 18.2133 0 18.2133 0C18.2133 0 6.82998 -0.000125098 3.98415 0.761135C3.21243 0.97041 2.50897 1.37808 1.94357 1.94348C1.37817 2.50888 0.970584 3.21234 0.761309 3.98406C4.85975e-05 6.8299 0 12.7635 0 12.7635C0 12.7635 4.85975e-05 18.697 0.761309 21.5428C0.970584 22.3145 1.37817 23.0182 1.94357 23.5836C2.50897 24.149 3.21243 24.5565 3.98415 24.7657C6.82998 25.527 18.2133 25.527 18.2133 25.527C18.2133 25.527 29.5966 25.527 32.4425 24.7657C33.2149 24.5578 33.9191 24.1507 34.4847 23.5851C35.0503 23.0195 35.4574 22.3152 35.6654 21.5428C36.4267 18.697 36.4267 12.7635 36.4267 12.7635C36.4267 12.7635 36.4267 6.8299 35.6654 3.98406ZM14.5494 18.2132V7.27108L24.026 12.7422L14.5494 18.2132Z" fill="white"/>
</svg>
